HIERARCHY
ROOT Hips
{
	OFFSET 0.00000 0.00000 0.00000
	CHANNELS 6 Xposition Yposition Zposition Zrotation Yrotation Xrotation 
	JOINT RightUpLegDummy
	{
		OFFSET 0 0 0
		CHANNELS 3 Zrotation Yrotation Xrotation
		JOINT RightUpLeg
		{
			OFFSET -3.52197 -3.41223 0.04002
			CHANNELS 3 Zrotation Yrotation Xrotation
			JOINT RightLeg
			{
				OFFSET -1.06336 -17.58347 1.60435
				CHANNELS 3 Zrotation Yrotation Xrotation
				JOINT RightFoot
				{
					OFFSET -0.27018 -17.05419 -1.63900
					CHANNELS 3 Zrotation Yrotation Xrotation
					JOINT RightToes
					{
						OFFSET 0.00298 -1.73825 3.34613
						CHANNELS 3 Zrotation Yrotation Xrotation
						End Site
						{
							OFFSET 0.00480 -0.05416 3.85043
						}
					}
				}
			}
		}
	}
	JOINT SpineDummy
	{
		OFFSET 0 0 0
		CHANNELS 3 Zrotation Yrotation Xrotation
		JOINT Spine
		{
			OFFSET 0.00000 4.14613 0.00000
			CHANNELS 3 Zrotation Yrotation Xrotation
			JOINT Spine1
			{
				OFFSET 0.00000 10.93369 0.05002
				CHANNELS 3 Zrotation Yrotation Xrotation
				JOINT HEadDummy
				{
					OFFSET 0 0 0
					CHANNELS 3 Zrotation Yrotation Xrotation
					JOINT Head
					{
						OFFSET 0.00000 5.52901 0.00438
						CHANNELS 3 Zrotation Yrotation Xrotation
						End Site
						{
							OFFSET -0.11417 7.29012 0.98962
						}
					}
				}
				JOINT LeftShoulder1Dummy
				{
					OFFSET 0 0 0
					CHANNELS 3 Zrotation Yrotation Xrotation
					JOINT LeftShoulder1
					{
						OFFSET 3.53937 -0.14262 -0.08662
						CHANNELS 3 Zrotation Yrotation Xrotation
						JOINT LeftArm
						{
							OFFSET 4.04833 -0.00133 0.12681
							CHANNELS 3 Zrotation Yrotation Xrotation
							JOINT LeftForeArm
							{
								OFFSET 9.67557 0.03289 -0.56117
								CHANNELS 3 Zrotation Yrotation Xrotation
								JOINT LeftHand
								{
									OFFSET 10.17679 0.06873 0.40307
									CHANNELS 3 Zrotation Yrotation Xrotation
									End Site
									{
										OFFSET 6.59293 -0.21483 0.59213
									}
								}
							}
						}
					}
				}
				JOINT RightShoulderDummy
				{
					OFFSET 0 0 0
					CHANNELS 3 Zrotation Yrotation Xrotation
					JOINT RightShoulder
					{
						OFFSET -3.53937 -0.14262 -0.08660
						CHANNELS 3 Zrotation Yrotation Xrotation
						JOINT RightArm
						{
							OFFSET -4.04833 -0.00132 0.12683
							CHANNELS 3 Zrotation Yrotation Xrotation
							JOINT RightForeArm
							{
								OFFSET -9.67570 0.03289 -0.56114
								CHANNELS 3 Zrotation Yrotation Xrotation
								JOINT RightHand
								{
									OFFSET -10.17679 0.06867 0.40304
									CHANNELS 3 Zrotation Yrotation Xrotation
									End Site
									{
										OFFSET -6.54841 -0.21495 0.59212
									}
								}
							}
						}
					}
				}
			}
		}
	}
	JOINT LeftUpLegDummy
	{
		OFFSET 0 0 0
		CHANNELS 3 Zrotation Yrotation Xrotation
		JOINT LeftUpLeg
		{
			OFFSET 3.52197 -3.41223 0.04002
			CHANNELS 3 Zrotation Yrotation Xrotation
			JOINT LeftLeg
			{
				OFFSET 1.08359 -17.35354 1.60336
				CHANNELS 3 Zrotation Yrotation Xrotation
				JOINT LeftFoot
				{
					OFFSET 0.24986 -17.28405 -1.63802
					CHANNELS 3 Zrotation Yrotation Xrotation
					JOINT LeftToes
					{
						OFFSET -0.01575 -1.73822 3.34610
						CHANNELS 3 Zrotation Yrotation Xrotation
						End Site
						{
							OFFSET 0.03150 -0.01868 3.85031
						}
					}
				}
			}
		}
	}
}
MOTION
Frames: 7
Frame Time: 0.033333
-50.1034 37.8632 3.7991 -169.8520 -52.1444 169.3210 0.0000 0.0000 0.0000 -5.2989 -0.4884 0.3111 -5.3352 -4.7381 27.3602 7.0485 1.0085 -21.7455 0.0000 -0.0000 0.0000 0.0000 0.0000 0.0000 7.6623 4.5040 5.4330 1.9694 5.0447 24.9066 0.0000 0.0000 0.0000 -9.6458 7.5460 -0.2603 0.0000 0.0000 0.0000 -16.5634 -5.0703 2.3294 13.1849 -52.5766 -47.1098 178.1878 -84.8168 -164.4826 2.2550 -3.0921 -0.1270 0.0000 0.0000 0.0000 11.1420 4.9089 1.7476 37.5492 56.9712 -7.0059 -171.8497 87.8708 -155.0146 -12.5344 6.1919 -1.1341 0.0000 0.0000 0.0000 16.4149 28.0252 -25.6566 -5.9751 -16.2930 22.9922 -3.2701 0.6413 7.5789 0.0000 0.0000 -0.0000
-50.4651 37.6488 3.6785 -168.6990 -52.9460 168.0780 0.0000 0.0000 0.0000 -4.9812 -0.8321 1.4715 -5.4854 -4.9441 27.5168 8.0910 1.1789 -22.5727 0.0000 -0.0000 0.0000 0.0000 0.0000 0.0000 11.3625 5.0316 4.7063 -1.7731 7.3976 27.2086 0.0000 0.0000 0.0000 -7.8807 4.9782 -1.9967 0.0000 0.0000 0.0000 -17.4351 -5.1750 2.4331 7.7201 -51.1477 -46.5867 179.7393 -83.7021 -169.2787 5.1574 -1.8346 -0.2742 0.0000 0.0000 0.0000 9.3117 4.0924 1.4483 32.4046 62.9739 -12.5830 -165.5776 88.7893 -148.7728 -12.7618 6.2908 -1.1657 0.0000 0.0000 0.0000 16.8489 28.1103 -27.3307 -7.5276 -16.0792 27.2834 -2.0379 0.3750 5.5893 0.0000 0.0000 -0.0000
-50.9797 37.6044 3.6119 -168.5950 -53.7104 168.4970 0.0000 0.0000 0.0000 -5.5512 -1.1291 2.2765 -5.5319 -5.1686 26.6239 8.8112 1.2158 -22.1674 0.0000 -0.0000 0.0000 0.0000 0.0000 0.0000 13.0035 5.8385 3.4988 -4.0782 9.2663 28.3624 0.0000 0.0000 0.0000 -6.2276 2.8084 -2.7260 0.0000 0.0000 0.0000 -17.9180 -5.3785 2.5283 6.5745 -49.9071 -48.1855 -179.3207 -82.9400 -172.9576 7.1570 -0.8693 -0.3329 0.0000 0.0000 0.0000 7.2104 3.0826 1.1250 23.5381 67.9825 -22.4086 -156.6010 89.2232 -139.6457 -12.6805 6.6136 -1.1917 0.0000 0.0000 0.0000 16.1569 27.8871 -28.6147 -8.1519 -15.6580 29.5101 -0.9770 0.1890 4.1819 0.0000 0.0000 -0.0000
-51.6547 37.7495 3.6137 -169.9990 -54.5190 170.6700 0.0000 0.0000 0.0000 -7.2889 -0.8045 2.9208 -5.1567 -4.8212 25.0013 10.2755 1.1814 -20.5303 0.0000 -0.0000 0.0000 0.0000 0.0000 0.0000 12.6135 6.7556 2.6533 -5.5243 10.6787 27.4094 0.0000 0.0000 0.0000 -4.3339 0.9323 -2.6188 0.0000 0.0000 0.0000 -17.5478 -5.5887 2.5477 10.1786 -49.9807 -52.1465 -178.9295 -82.6531 -174.6259 8.0759 -0.2948 -0.3390 0.0000 0.0000 0.0000 5.6947 2.4080 0.9243 12.5219 70.7970 -34.6872 -156.6126 89.2806 -140.2271 -12.9427 6.5629 -1.2118 0.0000 0.0000 0.0000 14.3451 26.9529 -29.1273 -7.8770 -15.0496 29.8004 -0.2738 0.0779 3.0856 0.0000 0.0000 -0.0000
-52.4611 38.0922 3.7209 -171.6300 -54.5644 173.1420 0.0000 0.0000 0.0000 -9.2713 0.2564 3.1619 -4.4320 -3.8205 23.2590 12.6352 0.9269 -17.0065 0.0000 -0.0000 0.0000 0.0000 0.0000 0.0000 11.9126 7.6651 2.3258 -6.8463 11.9250 25.4058 0.0000 0.0000 0.0000 -3.2893 -0.7445 -2.3153 0.0000 0.0000 0.0000 -16.2920 -5.5036 2.4110 15.7518 -50.9730 -57.7350 -178.8562 -82.1594 -175.1058 8.2031 0.5450 -0.2903 0.0000 0.0000 0.0000 4.9699 2.1187 0.8402 2.1891 72.2952 -46.2793 -157.2872 89.3101 -141.3859 -13.6613 6.1884 -1.2401 0.0000 0.0000 0.0000 12.4937 26.2818 -28.5551 -7.0292 -14.3779 28.6889 0.1094 0.0189 2.1752 0.0000 0.0000 -0.0000
-53.3362 38.6336 3.9291 -172.2020 -53.1078 174.6300 0.0000 0.0000 0.0000 -10.4215 1.4699 2.0997 -4.2733 -3.6025 22.6670 12.8581 0.1697 -10.7799 0.0000 -0.0000 0.0000 0.0000 0.0000 0.0000 12.0715 8.6014 2.0105 -8.0276 13.1304 23.9089 0.0000 0.0000 0.0000 -3.8127 -1.7941 -2.0849 0.0000 0.0000 0.0000 -14.8192 -5.1014 2.1839 20.7266 -51.7293 -63.4193 -178.9269 -81.4175 -175.0955 7.8624 1.2647 -0.2335 0.0000 0.0000 0.0000 4.6526 1.9818 0.8031 -6.1382 74.0770 -55.7802 -117.6644 89.6730 -101.1931 -14.3381 6.0456 -1.2874 0.0000 0.0000 0.0000 11.4220 27.1450 -26.7433 -5.9404 -13.9683 26.3016 0.3096 -0.0092 1.7329 0.0000 0.0000 -0.0000
-54.2119 39.2743 4.1707 -172.2400 -50.3970 175.4670 0.0000 0.0000 0.0000 -10.6928 2.2092 -0.6989 -5.0917 -4.8232 24.2648 8.2722 -0.4810 -3.3000 0.0000 -0.0000 0.0000 0.0000 0.0000 0.0000 12.1994 9.4674 1.6422 -8.5835 14.0146 22.8878 0.0000 0.0000 0.0000 -4.9765 -1.6911 -1.9400 0.0000 0.0000 0.0000 -13.7021 -4.7377 2.0067 24.0951 -51.6713 -67.3229 -179.0297 -80.8919 -174.7908 7.5521 0.8570 -0.2484 0.0000 0.0000 0.0000 4.4220 1.9189 0.7814 -10.6561 76.6683 -61.3951 -23.3269 89.1839 -6.0973 -14.6349 6.2578 -1.3407 0.0000 0.0000 0.0000 10.9031 29.2569 -23.8312 -4.6649 -13.7360 22.7907 0.4457 -0.0227 1.7911 0.0000 0.0000 -0.0000
